<svg width="122" height="29" viewBox="0 0 122 29" version="1.1" xmlns="http://www.w3.org/2000/svg" xmlns:xlink="http://www.w3.org/1999/xlink">
<title>ActUTS logo</title>
<desc>Created using Figma</desc>
<g id="Canvas" transform="translate(-809 -8002)">
<rect x="809" y="8002" width="122" height="29" fill="#FFFFFF"/>
<g id="06_01_Profile">
<path d="M 799 7950L 1174 7950L 1174 8949L 799 8949L 799 7950Z" fill="#F1F1F1"/>
<g id="Header/Landingpage">
<g id="Header_brand">
<g id="Header">
<g id="Background" filter="url(#filter0_d)">
<use xlink:href="#path0_fill" transform="translate(799 7990)"/>
</g>
<g id="ActUTS logo">
<g id="Fill 1">
<use xlink:href="#path1_fill" transform="translate(818.473 8008.79)" fill="#8DC63F"/>
</g>
<g id="Fill 2">
<use xlink:href="#path2_fill" transform="translate(818.473 8008.79)" fill="#8DC63F"/>
</g>
<g id="Group 17">
<g id="Fill 3">
<use xlink:href="#path3_fill" transform="translate(845.806 8012.92)" fill="#8DC63F"/>
</g>
<g id="Fill 5">
<use xlink:href="#path4_fill" transform="translate(854.996 8010.74)" fill="#8DC63F"/>
</g>
<mask id="mask0_outline" mask-type="alpha">
<g id="Clip 8">
<use xlink:href="#path5_fill" transform="translate(809 8002)" fill="#FFFFFF"/>
</g>
</mask>
<g id="Fill 7" mask="url(#mask0_outline)">
<use xlink:href="#path6_fill" transform="translate(862.36 8008.5)" fill="#8DC63F"/>
</g>
<g id="Fill 9" mask="url(#mask0_outline)">
<use xlink:href="#path7_fill" transform="translate(866.165 8013.22)" fill="#8DC63F"/>
</g>
<g id="Fill 10" mask="url(#mask0_outline)">
<use xlink:href="#path8_fill" transform="translate(876.407 8012.91)" fill="#8DC63F"/>
</g>
<g id="Fill 11" mask="url(#mask0_outline)">
<use xlink:href="#path9_fill" transform="translate(885.652 8010.74)" fill="#8DC63F"/>
</g>
<g id="Fill 12" mask="url(#mask0_outline)">
<use xlink:href="#path10_fill" transform="translate(892.638 8012.92)" fill="#8DC63F"/>
</g>
<g id="Fill 13" mask="url(#mask0_outline)">
<use xlink:href="#path11_fill" transform="translate(903.58 8010.57)" fill="#FFFFFF"/>
</g>
<g id="Fill 14" mask="url(#mask0_outline)">
<use xlink:href="#path12_fill" transform="translate(913.5 8010.57)" fill="#FFFFFF"/>
</g>
<g id="Fill 15" mask="url(#mask0_outline)">
<use xlink:href="#path13_fill" transform="translate(922.877 8010.26)" fill="#FFFFFF"/>
</g>
<g id="Fill 16" mask="url(#mask0_outline)">
<use xlink:href="#path14_fill" transform="translate(809.066 8002)" fill="#8DC63F"/>
</g>
</g>
</g>
</g>
</g>
</g>
</g>
</g>
<defs>
<filter id="filter0_d" filterUnits="userSpaceOnUse" x="790" y="7983" width="393" height="68" color-interpolation-filters="sRGB">
<feFlood flood-opacity="0" result="BackgroundImageFix"/>
<feColorMatrix in="SourceAlpha" type="matrix" values="0 0 0 0 0 0 0 0 0 0 0 0 0 0 0 0 0 0 255 0"/>
<feOffset dx="0" dy="2"/>
<feGaussianBlur stdDeviation="4.5"/>
<feColorMatrix type="matrix" values="0 0 0 0 0 0 0 0 0 0 0 0 0 0 0 0 0 0 0.2 0"/>
<feBlend mode="normal" in2="BackgroundImageFix" result="effect1_dropShadow"/>
<feBlend mode="normal" in="SourceGraphic" in2="effect1_dropShadow" result="shape"/>
</filter>
<path id="path0_fill" fill-rule="evenodd" d="M 0 0L 375 0L 375 50L 0 50L 0 0Z"/>
<path id="path1_fill" fill-rule="evenodd" d="M 0 0L 12.792 7.384L 0 14.774L 0 0Z"/>
<path id="path2_fill" fill-rule="evenodd" d="M 0 14.774L 0 0L 12.792 7.388L 0 14.774Z"/>
<path id="path3_fill" fill-rule="evenodd" d="M 6.986 3.35C 6.81 3.124 6.57 2.94 6.266 2.802C 5.962 2.66 5.654 2.594 5.338 2.594C 5.01 2.594 4.712 2.658 4.446 2.792C 4.184 2.924 3.954 3.1 3.768 3.32C 3.578 3.544 3.43 3.798 3.322 4.088C 3.214 4.38 3.162 4.688 3.162 5.016C 3.162 5.346 3.21 5.652 3.314 5.944C 3.414 6.232 3.562 6.488 3.758 6.71C 3.952 6.932 4.188 7.106 4.456 7.228C 4.73 7.358 5.034 7.42 5.374 7.42C 5.692 7.42 6.004 7.362 6.314 7.238C 6.62 7.122 6.87 6.948 7.062 6.72L 8.782 8.818C 8.394 9.2 7.888 9.494 7.27 9.712C 6.652 9.926 5.994 10.034 5.3 10.034C 4.556 10.034 3.862 9.92 3.214 9.692C 2.57 9.466 2.01 9.134 1.53 8.698C 1.058 8.264 0.682 7.734 0.41 7.118C 0.136 6.5 0 5.8 0 5.016C 0 4.244 0.136 3.552 0.41 2.934C 0.682 2.314 1.058 1.788 1.53 1.352C 2.01 0.918 2.57 0.584 3.214 0.35C 3.862 0.116 4.55 0 5.28 0C 5.62 0 5.958 0.032 6.292 0.094C 6.626 0.156 6.948 0.24 7.26 0.35C 7.57 0.458 7.854 0.59 8.11 0.746C 8.368 0.904 8.596 1.076 8.782 1.268L 6.986 3.35Z"/>
<path id="path4_fill" fill-rule="evenodd" d="M 4.544 4.792L 4.544 8.404C 4.544 8.844 4.63 9.176 4.8 9.402C 4.97 9.622 5.274 9.734 5.718 9.734C 5.87 9.734 6.028 9.722 6.2 9.696C 6.37 9.668 6.51 9.632 6.626 9.582L 6.664 11.854C 6.45 11.926 6.176 11.996 5.848 12.052C 5.52 12.108 5.192 12.138 4.864 12.138C 4.234 12.138 3.704 12.058 3.274 11.902C 2.844 11.744 2.502 11.512 2.244 11.218C 1.984 10.918 1.798 10.566 1.684 10.156C 1.572 9.744 1.512 9.284 1.512 8.778L 1.512 4.792L 0 4.792L 0 2.482L 1.496 2.482L 1.496 0L 4.544 0L 4.544 2.482L 6.756 2.482L 6.756 4.792L 4.544 4.792Z"/>
<path id="path5_fill" fill-rule="evenodd" d="M 0 28.346L 121.604 28.346L 121.604 0L 0 0L 0 28.346Z"/>
<path id="path6_fill" fill-rule="evenodd" d="M 0.226013 14.1419L 3.33201 14.1419L 3.33201 4.71387L 0.226013 4.71387L 0.226013 14.1419ZM 3.558 1.704C 3.558 1.946 3.512 2.168 3.418 2.376C 3.322 2.586 3.196 2.764 3.04 2.916C 2.878 3.068 2.692 3.188 2.468 3.276C 2.25 3.366 2.02 3.408 1.78 3.408C 1.274 3.408 0.852 3.242 0.512 2.906C 0.172 2.572 0 2.172 0 1.704C 0 1.478 0.044 1.26 0.13 1.052C 0.218 0.844 0.346 0.664 0.512 0.512C 0.676 0.362 0.864 0.238 1.08 0.144C 1.294 0.048 1.528 0 1.78 0C 2.02 0 2.25 0.046 2.468 0.134C 2.692 0.222 2.878 0.342 3.04 0.492C 3.196 0.646 3.322 0.824 3.418 1.032C 3.512 1.24 3.558 1.466 3.558 1.704L 3.558 1.704Z"/>
<path id="path7_fill" fill-rule="evenodd" d="M 7.06 9.428L 3.71 9.428L 0 0L 3.426 0L 5.414 6.114L 5.47 6.114L 7.458 0L 10.77 0L 7.06 9.428Z"/>
<path id="path8_fill" fill-rule="evenodd" d="M 6.15197 5.62402L 5.75397 5.62402C 5.41397 5.62402 5.06997 5.64002 4.72197 5.67002C 4.37397 5.70402 4.06597 5.76202 3.79397 5.85002C 3.52597 5.94002 3.29997 6.07002 3.12197 6.24202C 2.94397 6.41202 2.85797 6.63402 2.85797 6.91402C 2.85797 7.08802 2.89797 7.24202 2.97997 7.36602C 3.06197 7.49402 3.16797 7.59202 3.29197 7.66802C 3.41997 7.74602 3.56397 7.79602 3.72797 7.83202C 3.89197 7.86202 4.04997 7.87602 4.20197 7.87602C 4.83397 7.87602 5.31597 7.70402 5.64997 7.35602C 5.98397 7.00802 6.15197 6.54002 6.15197 5.94602L 6.15197 5.62402ZM 0.452 1.592C 1.01 1.064 1.656 0.666 2.394 0.4C 3.132 0.134 3.886 0 4.656 0C 5.45 0 6.122 0.1 6.674 0.294C 7.222 0.492 7.666 0.792 8.008 1.204C 8.348 1.614 8.598 2.13 8.756 2.756C 8.912 3.38 8.992 4.122 8.992 4.982L 8.992 9.734L 6.152 9.734L 6.152 8.73L 6.098 8.73C 5.858 9.12 5.492 9.422 5.006 9.636C 4.524 9.852 3.994 9.958 3.426 9.958C 3.046 9.958 2.656 9.91 2.252 9.808C 1.848 9.708 1.478 9.542 1.144 9.316C 0.81 9.088 0.534 8.786 0.322 8.408C 0.108 8.028 0 7.562 0 7.006C 0 6.326 0.188 5.776 0.558 5.358C 0.93 4.942 1.41 4.62 1.996 4.396C 2.584 4.166 3.236 4.014 3.956 3.938C 4.676 3.864 5.376 3.828 6.058 3.828L 6.058 3.674C 6.058 3.206 5.892 2.864 5.564 2.644C 5.236 2.42 4.834 2.312 4.356 2.312C 3.912 2.312 3.486 2.408 3.076 2.594C 2.666 2.784 2.314 3.012 2.026 3.276L 0.452 1.592Z"/>
<path id="path9_fill" fill-rule="evenodd" d="M 4.542 4.792L 4.542 8.404C 4.542 8.844 4.628 9.176 4.798 9.402C 4.968 9.622 5.274 9.734 5.716 9.734C 5.868 9.734 6.028 9.722 6.198 9.696C 6.368 9.668 6.51 9.632 6.624 9.582L 6.666 11.854C 6.448 11.926 6.176 11.996 5.848 12.052C 5.52 12.108 5.192 12.138 4.864 12.138C 4.236 12.138 3.702 12.058 3.274 11.902C 2.844 11.744 2.5 11.512 2.244 11.218C 1.986 10.918 1.798 10.566 1.682 10.156C 1.572 9.744 1.512 9.284 1.512 8.778L 1.512 4.792L 0 4.792L 0 2.482L 1.498 2.482L 1.498 0L 4.542 0L 4.542 2.482L 6.756 2.482L 6.756 4.792L 4.542 4.792Z"/>
<path id="path10_fill" fill-rule="evenodd" d="M 6.96397 3.93809C 6.96397 3.44609 6.80997 3.02209 6.50197 2.67009C 6.19197 2.31609 5.72797 2.14209 5.10797 2.14209C 4.80597 2.14209 4.52797 2.18809 4.27597 2.28209C 4.02397 2.37809 3.80397 2.50609 3.61397 2.67009C 3.42397 2.83409 3.27197 3.02609 3.16197 3.24809C 3.04597 3.47009 2.98397 3.69809 2.96997 3.93809L 6.96397 3.93809ZM 9.826 5.134L 9.826 5.51C 9.826 5.638 9.818 5.756 9.804 5.87L 2.97 5.87C 2.998 6.136 3.076 6.374 3.206 6.588C 3.34 6.806 3.508 6.99 3.718 7.148C 3.926 7.306 4.162 7.43 4.42 7.518C 4.676 7.606 4.944 7.648 5.224 7.648C 5.716 7.648 6.132 7.56 6.472 7.374C 6.814 7.192 7.09 6.954 7.306 6.664L 9.464 8.026C 9.02 8.672 8.438 9.168 7.712 9.514C 6.988 9.862 6.144 10.034 5.184 10.034C 4.478 10.034 3.81 9.924 3.178 9.702C 2.548 9.482 1.998 9.16 1.522 8.738C 1.048 8.314 0.676 7.796 0.406 7.176C 0.134 6.56 0 5.85 0 5.058C 0 4.286 0.13 3.588 0.396 2.966C 0.664 2.338 1.02 1.812 1.476 1.374C 1.928 0.938 2.466 0.6 3.086 0.36C 3.702 0.12 4.37 0 5.09 0C 5.784 0 6.422 0.118 7.006 0.352C 7.586 0.584 8.084 0.922 8.502 1.364C 8.918 1.808 9.242 2.342 9.474 2.976C 9.706 3.604 9.826 4.324 9.826 5.134L 9.826 5.134Z"/>
<path id="path11_fill" fill-rule="evenodd" d="M 4.522 12.386C 3.612 12.386 2.866 12.23 2.286 11.918C 1.706 11.602 1.246 11.208 0.902 10.732C 0.564 10.254 0.326 9.734 0.196 9.17C 0.064 8.604 0 8.076 0 7.574L 0 0L 1.228 0L 1.228 7.436C 1.228 7.926 1.286 8.402 1.398 8.86C 1.514 9.324 1.698 9.734 1.954 10.092C 2.21 10.448 2.548 10.74 2.97 10.96C 3.39 11.18 3.908 11.294 4.522 11.294C 5.136 11.294 5.652 11.18 6.072 10.96C 6.496 10.74 6.834 10.448 7.09 10.092C 7.346 9.734 7.53 9.324 7.644 8.86C 7.758 8.402 7.814 7.926 7.814 7.436L 7.814 0L 9.044 0L 9.044 7.574C 9.044 8.076 8.978 8.604 8.846 9.17C 8.716 9.734 8.48 10.254 8.138 10.732C 7.798 11.208 7.334 11.602 6.748 11.918C 6.162 12.23 5.42 12.386 4.522 12.386"/>
<path id="path12_fill" fill-rule="evenodd" d="M 5.274 12.08L 4.046 12.08L 4.046 1.092L 0 1.092L 0 0L 9.316 0L 9.316 1.092L 5.274 1.092L 5.274 12.08Z"/>
<path id="path13_fill" fill-rule="evenodd" d="M 6.602 2.252C 6.34 1.886 6.004 1.594 5.596 1.374C 5.186 1.152 4.692 1.04 4.112 1.04C 3.814 1.04 3.514 1.086 3.206 1.176C 2.898 1.268 2.62 1.408 2.372 1.594C 2.12 1.782 1.918 2.018 1.764 2.3C 1.612 2.586 1.534 2.922 1.534 3.308C 1.534 3.696 1.608 4.014 1.756 4.264C 1.902 4.516 2.098 4.726 2.342 4.904C 2.586 5.082 2.864 5.224 3.176 5.34C 3.486 5.454 3.812 5.568 4.154 5.68C 4.576 5.818 4.998 5.964 5.422 6.126C 5.848 6.284 6.23 6.492 6.572 6.748C 6.912 7.004 7.19 7.328 7.402 7.718C 7.622 8.112 7.726 8.61 7.726 9.21C 7.726 9.816 7.614 10.336 7.384 10.774C 7.152 11.21 6.854 11.572 6.486 11.858C 6.12 12.14 5.7 12.352 5.228 12.488C 4.756 12.626 4.282 12.694 3.804 12.694C 3.44 12.694 3.076 12.656 2.712 12.582C 2.348 12.508 2.002 12.398 1.67 12.25C 1.34 12.102 1.034 11.914 0.75 11.688C 0.466 11.46 0.214 11.198 0 10.902L 1.056 10.118C 1.316 10.546 1.686 10.91 2.158 11.202C 2.628 11.49 3.184 11.632 3.822 11.632C 4.128 11.632 4.44 11.588 4.758 11.49C 5.078 11.392 5.366 11.246 5.622 11.046C 5.878 10.848 6.086 10.604 6.254 10.312C 6.418 10.024 6.5 9.684 6.5 9.296C 6.5 8.878 6.418 8.528 6.254 8.25C 6.086 7.968 5.868 7.738 5.596 7.546C 5.322 7.362 5.01 7.206 4.658 7.08C 4.306 6.956 3.934 6.83 3.548 6.706C 3.148 6.58 2.756 6.438 2.372 6.278C 1.982 6.12 1.636 5.912 1.33 5.656C 1.022 5.4 0.776 5.084 0.588 4.708C 0.398 4.334 0.306 3.874 0.306 3.326C 0.306 2.746 0.422 2.246 0.654 1.826C 0.888 1.404 1.194 1.056 1.566 0.784C 1.944 0.512 2.36 0.312 2.812 0.188C 3.27 0.062 3.718 0 4.162 0C 4.98 0 5.68 0.142 6.26 0.434C 6.842 0.722 7.28 1.068 7.576 1.464L 6.602 2.252Z"/>
<path id="path14_fill" fill-rule="evenodd" d="M 28.694 15.4218L 30.398 10.8218L 32.064 15.4218L 28.694 15.4218ZM 32.026 7.244L 29.2 7.244L 24.544 18.34L 24.54 18.34C 22.886 22.434 18.854 25.334 14.174 25.334C 8.02 25.334 3.014 20.326 3.014 14.172C 3.014 8.02 8.02 3.014 14.174 3.014C 19.346 3.014 23.692 6.558 24.948 11.342L 26.606 7.444C 24.202 3.026 19.548 0 14.174 0C 6.358 0 0 6.36 0 14.172C 0 21.988 6.358 28.346 14.174 28.346C 19.652 28.346 24.414 25.22 26.774 20.66L 26.774 20.648L 26.782 20.648C 26.782 20.648 27.058 20.168 27.766 18.016L 32.954 18.016L 33.992 20.648L 37.592 20.648L 32.026 7.244Z"/>
</defs>
</svg>
